<svg xmlns="http://www.w3.org/2000/svg" width="20" height="21" viewBox="0 0 20 21" fill="none"><path d="M19.0843 4.8968C18.8662 3.97297 18.2237 3.24539 17.4078 2.99848C15.929 2.5498 9.99907 2.5498 9.99907 2.5498C9.99907 2.5498 4.06921 2.5498 2.59036 2.99848C1.77449 3.24543 1.13192 3.97297 0.913828 4.8968C0.517578 6.57129 0.517578 10.065 0.517578 10.065C0.517578 10.065 0.517578 13.5586 0.913828 15.2331C1.13192 16.157 1.77449 16.8542 2.59036 17.1011C4.06921 17.5498 9.99907 17.5498 9.99907 17.5498C9.99907 17.5498 15.9289 17.5498 17.4078 17.1011C18.2237 16.8542 18.8662 16.157 19.0843 15.2331C19.4806 13.5586 19.4806 10.065 19.4806 10.065C19.4806 10.065 19.4806 6.57129 19.0843 4.8968ZM8.05966 13.237V6.89297L13.0159 10.065L8.05966 13.237Z" fill="#133D8D"></path></svg>