<svg xmlns="http://www.w3.org/2000/svg" width="124" height="60" viewBox="0 0 124 60" fill="none"><path d="M22.5306 3.26856C8.91829 9.71692 3.11054 25.9787 9.55948 39.5918C16.009 53.2055 32.2719 59.0108 45.8849 52.563C50.7402 50.2612 54.6043 46.7096 57.2743 42.476C54.4397 48.6801 49.486 53.9563 42.838 57.1053C27.8694 64.1968 9.98653 57.811 2.89452 42.8392C-4.19687 27.871 2.19008 9.98555 17.1568 2.89598C23.4699 -0.0952615 30.2964 -0.689493 36.6138 0.745703C31.9338 0.326791 27.0873 1.10887 22.5312 3.26793L22.5306 3.26856Z" fill="#133D8D"></path><path d="M38.6752 4.38042C25.9501 4.43239 15.6772 14.7894 15.7291 27.5126C15.7811 40.2415 26.1386 50.5108 38.863 50.4589C43.4022 50.4407 47.6326 49.1082 51.1886 46.827C46.7972 50.5565 41.1179 52.817 34.9038 52.8427C20.9107 52.8997 9.52253 41.6016 9.46555 27.6084C9.40857 13.6165 20.7041 2.22576 34.6971 2.1694C40.5963 2.14561 46.0314 4.13809 50.3508 7.50128C46.9219 5.50253 42.9306 4.36351 38.6746 4.38042H38.6752Z" fill="#4E84C4"></path><path d="M52.6586 13.416C43.9529 7.62264 32.1953 9.98834 26.4038 18.6985C20.6111 27.4079 22.9762 39.1644 31.6869 44.9565C34.7939 47.0248 38.2886 48.0511 41.7626 48.1237C37.0575 48.6572 32.1471 47.5984 27.8916 44.7712C18.3131 38.4005 15.712 25.4737 22.082 15.8944C28.4527 6.31644 41.3794 3.71531 50.9598 10.0848C54.9973 12.7717 57.7951 16.6214 59.2027 20.8957C57.7769 17.9596 55.5734 15.3534 52.6598 13.4167L52.6586 13.416Z" fill="#B0CBEA"></path><path d="M31.6548 27.416H27.2822L28.4914 23.9495H39.6547V27.416H35.8865V38.0553H31.6548V27.416Z" fill="#B2B2B2"></path><path d="M40.3794 29.955C40.3794 28.6049 41.5078 27.4766 42.8578 27.4766H47.4927C48.8434 27.4766 49.9711 28.6049 49.9711 29.955V31.325C49.9711 32.6751 48.8427 33.8035 47.4927 33.8035H44.2078V34.9926H50.1727L48.9636 38.0552H42.8578C41.5078 38.0552 40.3794 36.9268 40.3794 35.5768V29.955ZM44.2078 31.6676H46.3437V30.3376H44.2078V31.6676Z" fill="#B2B2B2"></path><path d="M59.682 27.4758L58.4735 30.5385H54.7259V34.9918H59.7841L58.5756 38.0545H53.3759C52.0258 38.0545 50.8975 36.9261 50.8975 35.5761V29.9542C50.8975 28.6042 52.0258 27.4758 53.3759 27.4758H59.6827H59.682Z" fill="#B2B2B2"></path><path d="M70.8243 38.0553H66.9959V30.5393H64.2552V38.0553H60.4268V23.5468H64.2552V27.4766H68.3459C69.696 27.4766 70.8243 28.605 70.8243 29.955V38.0553Z" fill="#B2B2B2"></path><path d="M82.4708 38.0552H78.6424V30.5392H75.9017V38.0552H72.0732V27.4766H79.9924C81.3431 27.4766 82.4708 28.6049 82.4708 29.955V38.0552Z" fill="#B2B2B2"></path><path d="M91.3142 27.4758C92.6643 27.4758 93.7926 28.6042 93.7926 29.9542V35.5761C93.7926 36.9261 92.6643 38.0545 91.3142 38.0545H86.0751C84.7244 38.0545 83.5967 36.9261 83.5967 35.5761V29.9542C83.5967 28.6042 84.725 27.4758 86.0751 27.4758H91.3142ZM89.9642 30.1358H87.4251V35.3951H89.9642V30.1358Z" fill="#B2B2B2"></path><path d="M105.479 23.9495L104.27 27.416H99.1514V34.5895H105.479L104.27 38.0553H97.3787C95.9479 38.0553 94.9204 37.0278 94.9204 35.597V26.4078C94.9204 24.9776 95.9479 23.9495 97.3787 23.9495H105.479Z" fill="#B2B2B2"></path><path d="M110.616 23.9495H106.385V38.0547H110.616V23.9495Z" fill="#B2B2B2"></path><path d="M115.29 27.416H110.917L112.127 23.9495H123.29V27.416H119.522V38.0553H115.29V27.416Z" fill="#B2B2B2"></path><path d="M31.6288 27.2879H27.2568L28.4653 23.8214H39.6287V27.2879H35.8604V37.9273H31.6288V27.2879Z" fill="#BEC0C3"></path><path d="M40.3525 29.8267C40.3525 28.4766 41.4809 27.3483 42.8309 27.3483H47.4658C48.8165 27.3483 49.9442 28.4766 49.9442 29.8267V31.1967C49.9442 32.5468 48.8159 33.6752 47.4658 33.6752H44.181V34.8643H50.1458L48.9367 37.9269H42.8309C41.4809 37.9269 40.3525 36.7985 40.3525 35.4485V29.8267ZM44.181 31.5393H46.3168V30.2093H44.181V31.5393Z" fill="#BEC0C3"></path><path d="M59.6547 27.3483L58.4461 30.4109H54.6985V34.8643H59.7567L58.5482 37.9269H53.3485C51.9985 37.9269 50.8701 36.7985 50.8701 35.4485V29.8267C50.8701 28.4766 51.9985 27.3483 53.3485 27.3483H59.6553H59.6547Z" fill="#BEC0C3"></path><path d="M70.797 37.9274H66.9686V30.4114H64.2278V37.9274H60.3994V23.4189H64.2278V27.3488H68.3186C69.6686 27.3488 70.797 28.4772 70.797 29.8272V37.9274Z" fill="#BEC0C3"></path><path d="M82.4435 37.9273H78.615V30.4113H75.8743V37.9273H72.0459V27.3486H79.9651C81.3157 27.3486 82.4435 28.477 82.4435 29.827V37.9273Z" fill="#BEC0C3"></path><path d="M91.2884 27.3483C92.6384 27.3483 93.7667 28.4766 93.7667 29.8267V35.4485C93.7667 36.7985 92.6384 37.9269 91.2884 37.9269H86.0492C84.6985 37.9269 83.5708 36.7985 83.5708 35.4485V29.8267C83.5708 28.4766 84.6992 27.3483 86.0492 27.3483H91.2884ZM89.9383 30.0083H87.3992V35.2675H89.9383V30.0083Z" fill="#BEC0C3"></path><path d="M105.452 23.8214L104.242 27.2879H99.1241V34.4614H105.452L104.242 37.9273H97.3514C95.9206 37.9273 94.8931 36.8997 94.8931 35.4689V26.2798C94.8931 24.8496 95.9206 23.8214 97.3514 23.8214H105.452Z" fill="#BEC0C3"></path><path d="M110.589 23.8214H106.358V37.9267H110.589V23.8214Z" fill="#BEC0C3"></path><path d="M115.263 27.2879H110.891L112.099 23.8214H123.263V27.2879H119.495V37.9273H115.263V27.2879Z" fill="#BEC0C3"></path></svg>