<svg xmlns="http://www.w3.org/2000/svg" width="20" height="21" viewBox="0 0 20 21" fill="none"><g clip-path="url(#clip0_902_113611)"><path d="M19.6875 10.0498C19.6875 4.69824 15.3516 0.362305 10 0.362305C4.64844 0.362305 0.3125 4.69824 0.3125 10.0498C0.3125 14.885 3.85508 18.8928 8.48633 19.6201V12.8502H6.02539V10.0498H8.48633V7.91543C8.48633 5.4877 9.93164 4.14668 12.1453 4.14668C13.2055 4.14668 14.3141 4.33574 14.3141 4.33574V6.71855H13.0922C11.8891 6.71855 11.5137 7.46543 11.5137 8.23145V10.0498H14.2004L13.7707 12.8502H11.5137V19.6201C16.1449 18.8928 19.6875 14.885 19.6875 10.0498Z" fill="#133D8D"></path></g><defs><clipPath id="clip0_902_113611"><rect width="20" height="20" fill="white" transform="translate(0 0.0498047)"></rect></clipPath></defs></svg>