<svg xmlns="http://www.w3.org/2000/svg" width="20" height="21" viewBox="0 0 20 21" fill="none"><g clip-path="url(#clip0_902_113607)"><path d="M18.1908 0.0498047H1.80916C0.81 0.0498047 0 0.859805 0 1.85897V18.2406C0 19.2398 0.81 20.0498 1.80916 20.0498H18.1908C19.19 20.0498 20 19.2398 20 18.2406V1.85897C20 0.859805 19.19 0.0498047 18.1908 0.0498047ZM6.18885 17.3191C6.18885 17.6099 5.95314 17.8456 5.66236 17.8456H3.4212C3.13042 17.8456 2.89471 17.6099 2.89471 17.3191V7.92431C2.89471 7.63352 3.13042 7.39781 3.4212 7.39781H5.66236C5.95314 7.39781 6.18885 7.63352 6.18885 7.92431V17.3191ZM4.54178 6.51221C3.36592 6.51221 2.41267 5.55897 2.41267 4.3831C2.41267 3.20724 3.36592 2.25399 4.54178 2.25399C5.71764 2.25399 6.67089 3.20724 6.67089 4.3831C6.67089 5.55897 5.7177 6.51221 4.54178 6.51221ZM17.901 17.3615C17.901 17.6289 17.6843 17.8456 17.417 17.8456H15.012C14.7447 17.8456 14.528 17.6289 14.528 17.3615V12.9548C14.528 12.2974 14.7208 10.0742 12.81 10.0742C11.3279 10.0742 11.0272 11.5959 10.9669 12.2789V17.3615C10.9669 17.6289 10.7502 17.8456 10.4828 17.8456H8.15681C7.88948 17.8456 7.67272 17.6289 7.67272 17.3615V7.8819C7.67272 7.61457 7.88948 7.39781 8.15681 7.39781H10.4828C10.7501 7.39781 10.9669 7.61457 10.9669 7.8819V8.70153C11.5164 7.87677 12.3332 7.24017 14.0722 7.24017C17.9231 7.24017 17.901 10.8379 17.901 12.8146V17.3615Z" fill="#133D8D"></path></g><defs><clipPath id="clip0_902_113607"><rect width="20" height="20" fill="white" transform="translate(0 0.0498047)"></rect></clipPath></defs></svg>