<svg xmlns="http://www.w3.org/2000/svg" width="20" height="21" viewBox="0 0 20 21" fill="none"><g clip-path="url(#clip0_1785_6832)"><path d="M10.6689 9.70825L15.1696 16.1459H13.3225L9.64982 10.8928V10.8924L9.11061 10.1213L4.82031 3.98438H6.66742L10.1297 8.9371L10.6689 9.70825Z" fill="#133D8D"></path><path d="M17.839 0.0498047H2.16104C0.967563 0.0498047 0 1.01737 0 2.21085V17.8888C0 19.0822 0.967563 20.0498 2.16104 20.0498H17.839C19.0324 20.0498 20 19.0822 20 17.8888V2.21085C20 1.01737 19.0324 0.0498047 17.839 0.0498047ZM12.7566 17.0102L9.0401 11.6012L4.38696 17.0102H3.18435L8.50611 10.8244L3.18435 3.07914H7.24336L10.7627 8.20107L15.1689 3.07914H16.3715L11.2968 8.97808H11.2965L16.8156 17.0102H12.7566Z" fill="#133D8D"></path></g><defs><clipPath id="clip0_1785_6832"><rect width="20" height="20" fill="white" transform="translate(0 0.0498047)"></rect></clipPath></defs></svg>