<svg xmlns="http://www.w3.org/2000/svg" width="1730" height="915" viewBox="0 0 1730 915" fill="none"><mask id="mask0_1151_5327" style="mask-type:alpha" maskUnits="userSpaceOnUse" x="0" y="0" width="1730" height="915"><rect width="1730" height="915" fill="#D9D9D9"></rect></mask><g mask="url(#mask0_1151_5327)"><rect width="1730" height="915" fill="url(#paint0_linear_1151_5327)"></rect><g opacity="0.5"><path fill-rule="evenodd" clip-rule="evenodd" d="M1297.45 0L864.992 1030.54L594.678 1030.52L1027.22 4.55844e-05L1297.45 0ZM1730 0.00389554L1297.46 1030.55L1081.19 1030.56L1513.75 0L1730 0.00389554ZM378.456 1030.54L810.92 5.72399e-06L432.481 4.24901e-05L0 1030.55L378.456 1030.54Z" fill="url(#paint1_linear_1151_5327)"></path><path d="M864.992 1030.54L864.992 1031.04H865.325L865.453 1030.74L864.992 1030.54ZM1297.45 0L1297.91 0.193476L1298.2 -0.5L1297.45 -0.5V0ZM594.678 1030.52L594.217 1030.33L593.926 1031.02H594.678L594.678 1030.52ZM1027.22 4.55844e-05V-0.499954L1026.89 -0.499954L1026.76 -0.193465L1027.22 4.55844e-05ZM1297.46 1030.55V1031.05H1297.79L1297.92 1030.74L1297.46 1030.55ZM1730 0.00389554L1730.46 0.197403L1730.75 -0.496091L1730 -0.496104V0.00389554ZM1081.19 1030.56L1080.73 1030.36L1080.44 1031.06H1081.19V1030.56ZM1513.75 0V-0.5L1513.41 -0.500006L1513.29 -0.193512L1513.75 0ZM810.92 5.72399e-06L811.381 0.193484L811.672 -0.499994L810.92 -0.499994V5.72399e-06ZM378.456 1030.54V1031.04H378.788L378.917 1030.74L378.456 1030.54ZM432.481 4.24901e-05V-0.499958L432.149 -0.499957L432.02 -0.193441L432.481 4.24901e-05ZM0 1030.55L-0.461047 1030.35L-0.75208 1031.05H8.06371e-06L0 1030.55ZM865.453 1030.74L1297.91 0.193476L1296.99 -0.193476L864.531 1030.35L865.453 1030.74ZM594.678 1031.02L864.992 1031.04L864.992 1030.04L594.678 1030.02L594.678 1031.02ZM1026.76 -0.193465L594.217 1030.33L595.139 1030.72L1027.68 0.193557L1026.76 -0.193465ZM1297.45 -0.5L1027.22 -0.499954V0.500046L1297.45 0.5V-0.5ZM1297.92 1030.74L1730.46 0.197403L1729.54 -0.189612L1296.99 1030.36L1297.92 1030.74ZM1081.19 1031.06L1297.46 1031.05V1030.05L1081.19 1030.06V1031.06ZM1513.29 -0.193512L1080.73 1030.36L1081.65 1030.75L1514.21 0.193512L1513.29 -0.193512ZM1730 -0.496104L1513.75 -0.5V0.5L1730 0.503896V-0.496104ZM810.459 -0.193472L377.995 1030.35L378.917 1030.74L811.381 0.193484L810.459 -0.193472ZM432.481 0.500042L810.92 0.500006V-0.499994L432.481 -0.499958V0.500042ZM0.461047 1030.74L432.942 0.193526L432.02 -0.193441L-0.461047 1030.35L0.461047 1030.74ZM378.456 1030.04L-8.06371e-06 1030.05L8.06371e-06 1031.05L378.456 1031.04V1030.04Z" fill="url(#paint2_linear_1151_5327)"></path></g></g><defs><linearGradient id="paint0_linear_1151_5327" x1="17.9999" y1="8.72193" x2="1471.69" y2="1208.44" gradientUnits="userSpaceOnUse"><stop stop-color="#133D8D"></stop><stop offset="0.485" stop-color="#161045"></stop><stop offset="1" stop-color="#022145"></stop></linearGradient><linearGradient id="paint1_linear_1151_5327" x1="1380" y1="417.209" x2="1503.98" y2="-10.7247" gradientUnits="userSpaceOnUse"><stop stop-color="#B0CBEA" stop-opacity="0"></stop><stop offset="1" stop-color="white" stop-opacity="0.1"></stop></linearGradient><linearGradient id="paint2_linear_1151_5327" x1="1019.5" y1="834.623" x2="1238.37" y2="167.522" gradientUnits="userSpaceOnUse"><stop stop-color="white" stop-opacity="0.3"></stop><stop offset="1" stop-color="white" stop-opacity="0"></stop></linearGradient></defs></svg>